<mxfile host="app.diagrams.net" modified="2024-03-10T14:38:57.110Z" agent="Mozilla/5.0 (Windows NT 10.0; Win64; x64) AppleWebKit/537.36 (KHTML, like Gecko) Chrome/122.0.0.0 Safari/537.36" etag="3vkk706HtLLw9Um4ieTf" version="23.1.7" type="device">
  <diagram name="Страница — 1" id="KL_sczqNKTBtZ7C0Chw6">
    <mxGraphModel dx="1434" dy="784" grid="1" gridSize="10" guides="1" tooltips="1" connect="1" arrows="1" fold="1" page="1" pageScale="1" pageWidth="827" pageHeight="1169" math="0" shadow="0">
      <root>
        <mxCell id="0" />
        <mxCell id="1" parent="0" />
        <mxCell id="7-1S0OzysIVDJsEuhTjP-3" value="" style="group" vertex="1" connectable="0" parent="1">
          <mxGeometry x="60" y="300" width="160" height="190" as="geometry" />
        </mxCell>
        <mxCell id="7-1S0OzysIVDJsEuhTjP-1" value="" style="rounded=1;whiteSpace=wrap;html=1;fillStyle=auto;" vertex="1" parent="7-1S0OzysIVDJsEuhTjP-3">
          <mxGeometry width="110" height="190" as="geometry" />
        </mxCell>
        <mxCell id="7-1S0OzysIVDJsEuhTjP-2" value="" style="rounded=1;whiteSpace=wrap;html=1;fillStyle=hatch;fillColor=#000000;" vertex="1" parent="7-1S0OzysIVDJsEuhTjP-3">
          <mxGeometry width="110" height="190" as="geometry" />
        </mxCell>
        <mxCell id="7-1S0OzysIVDJsEuhTjP-19" value="" style="ellipse;whiteSpace=wrap;html=1;aspect=fixed;" vertex="1" parent="7-1S0OzysIVDJsEuhTjP-3">
          <mxGeometry x="10" y="30" width="40" height="40" as="geometry" />
        </mxCell>
        <mxCell id="7-1S0OzysIVDJsEuhTjP-26" value="" style="group" vertex="1" connectable="0" parent="7-1S0OzysIVDJsEuhTjP-3">
          <mxGeometry x="90" y="120" width="40" height="40" as="geometry" />
        </mxCell>
        <mxCell id="7-1S0OzysIVDJsEuhTjP-24" value="" style="ellipse;whiteSpace=wrap;html=1;aspect=fixed;fillColor=#000000;" vertex="1" parent="7-1S0OzysIVDJsEuhTjP-26">
          <mxGeometry width="40" height="40" as="geometry" />
        </mxCell>
        <mxCell id="7-1S0OzysIVDJsEuhTjP-25" value="" style="ellipse;whiteSpace=wrap;html=1;aspect=fixed;fillColor=#FFFFFF;fillStyle=hatch;rotation=-90;" vertex="1" parent="7-1S0OzysIVDJsEuhTjP-26">
          <mxGeometry width="40" height="40" as="geometry" />
        </mxCell>
        <mxCell id="7-1S0OzysIVDJsEuhTjP-42" value="out" style="text;html=1;align=center;verticalAlign=middle;whiteSpace=wrap;rounded=0;" vertex="1" parent="7-1S0OzysIVDJsEuhTjP-3">
          <mxGeometry x="100" y="90" width="60" height="30" as="geometry" />
        </mxCell>
        <mxCell id="7-1S0OzysIVDJsEuhTjP-4" value="" style="group" vertex="1" connectable="0" parent="1">
          <mxGeometry x="290" y="300" width="110" height="190" as="geometry" />
        </mxCell>
        <mxCell id="7-1S0OzysIVDJsEuhTjP-5" value="" style="rounded=1;whiteSpace=wrap;html=1;fillStyle=auto;" vertex="1" parent="7-1S0OzysIVDJsEuhTjP-4">
          <mxGeometry width="110" height="190" as="geometry" />
        </mxCell>
        <mxCell id="7-1S0OzysIVDJsEuhTjP-6" value="" style="rounded=1;whiteSpace=wrap;html=1;fillStyle=hatch;fillColor=#000000;" vertex="1" parent="7-1S0OzysIVDJsEuhTjP-4">
          <mxGeometry width="110" height="190" as="geometry" />
        </mxCell>
        <mxCell id="7-1S0OzysIVDJsEuhTjP-7" value="" style="group" vertex="1" connectable="0" parent="1">
          <mxGeometry x="520" y="300" width="130" height="220" as="geometry" />
        </mxCell>
        <mxCell id="7-1S0OzysIVDJsEuhTjP-8" value="" style="rounded=1;whiteSpace=wrap;html=1;fillStyle=auto;" vertex="1" parent="7-1S0OzysIVDJsEuhTjP-7">
          <mxGeometry width="110" height="190" as="geometry" />
        </mxCell>
        <mxCell id="7-1S0OzysIVDJsEuhTjP-9" value="" style="rounded=1;whiteSpace=wrap;html=1;fillStyle=hatch;fillColor=#000000;" vertex="1" parent="7-1S0OzysIVDJsEuhTjP-7">
          <mxGeometry width="110" height="190" as="geometry" />
        </mxCell>
        <mxCell id="7-1S0OzysIVDJsEuhTjP-38" value="" style="ellipse;whiteSpace=wrap;html=1;aspect=fixed;" vertex="1" parent="7-1S0OzysIVDJsEuhTjP-7">
          <mxGeometry x="-20" y="120" width="40" height="40" as="geometry" />
        </mxCell>
        <mxCell id="7-1S0OzysIVDJsEuhTjP-30" value="" style="group" vertex="1" connectable="0" parent="7-1S0OzysIVDJsEuhTjP-7">
          <mxGeometry x="35" y="170" width="40" height="40" as="geometry" />
        </mxCell>
        <mxCell id="7-1S0OzysIVDJsEuhTjP-31" value="" style="ellipse;whiteSpace=wrap;html=1;aspect=fixed;fillColor=#000000;" vertex="1" parent="7-1S0OzysIVDJsEuhTjP-30">
          <mxGeometry width="40" height="40" as="geometry" />
        </mxCell>
        <mxCell id="7-1S0OzysIVDJsEuhTjP-32" value="" style="ellipse;whiteSpace=wrap;html=1;aspect=fixed;fillColor=#FFFFFF;fillStyle=hatch;rotation=-90;" vertex="1" parent="7-1S0OzysIVDJsEuhTjP-30">
          <mxGeometry width="40" height="40" as="geometry" />
        </mxCell>
        <mxCell id="7-1S0OzysIVDJsEuhTjP-107" value="stop" style="text;html=1;align=center;verticalAlign=middle;whiteSpace=wrap;rounded=0;" vertex="1" parent="7-1S0OzysIVDJsEuhTjP-7">
          <mxGeometry x="68" y="195" width="60" height="30" as="geometry" />
        </mxCell>
        <mxCell id="7-1S0OzysIVDJsEuhTjP-10" value="" style="group" vertex="1" connectable="0" parent="1">
          <mxGeometry x="950" y="60" width="130" height="190" as="geometry" />
        </mxCell>
        <mxCell id="7-1S0OzysIVDJsEuhTjP-11" value="" style="rounded=1;whiteSpace=wrap;html=1;fillStyle=auto;" vertex="1" parent="7-1S0OzysIVDJsEuhTjP-10">
          <mxGeometry width="110" height="190" as="geometry" />
        </mxCell>
        <mxCell id="7-1S0OzysIVDJsEuhTjP-12" value="" style="rounded=1;whiteSpace=wrap;html=1;fillStyle=hatch;fillColor=#000000;" vertex="1" parent="7-1S0OzysIVDJsEuhTjP-10">
          <mxGeometry width="110" height="190" as="geometry" />
        </mxCell>
        <mxCell id="7-1S0OzysIVDJsEuhTjP-33" value="" style="group" vertex="1" connectable="0" parent="7-1S0OzysIVDJsEuhTjP-10">
          <mxGeometry x="90" y="120" width="40" height="40" as="geometry" />
        </mxCell>
        <mxCell id="7-1S0OzysIVDJsEuhTjP-34" value="" style="ellipse;whiteSpace=wrap;html=1;aspect=fixed;fillColor=#000000;" vertex="1" parent="7-1S0OzysIVDJsEuhTjP-33">
          <mxGeometry width="40" height="40" as="geometry" />
        </mxCell>
        <mxCell id="7-1S0OzysIVDJsEuhTjP-35" value="" style="ellipse;whiteSpace=wrap;html=1;aspect=fixed;fillColor=#FFFFFF;fillStyle=hatch;rotation=-90;" vertex="1" parent="7-1S0OzysIVDJsEuhTjP-33">
          <mxGeometry width="40" height="40" as="geometry" />
        </mxCell>
        <mxCell id="7-1S0OzysIVDJsEuhTjP-13" value="" style="group" vertex="1" connectable="0" parent="1">
          <mxGeometry x="1100" y="60" width="110" height="190" as="geometry" />
        </mxCell>
        <mxCell id="7-1S0OzysIVDJsEuhTjP-14" value="" style="rounded=1;whiteSpace=wrap;html=1;fillStyle=auto;" vertex="1" parent="7-1S0OzysIVDJsEuhTjP-13">
          <mxGeometry width="110" height="190" as="geometry" />
        </mxCell>
        <mxCell id="7-1S0OzysIVDJsEuhTjP-15" value="" style="rounded=1;whiteSpace=wrap;html=1;fillStyle=hatch;fillColor=#000000;" vertex="1" parent="7-1S0OzysIVDJsEuhTjP-13">
          <mxGeometry width="110" height="190" as="geometry" />
        </mxCell>
        <mxCell id="7-1S0OzysIVDJsEuhTjP-27" value="" style="group" vertex="1" connectable="0" parent="1">
          <mxGeometry x="380" y="420" width="40" height="40" as="geometry" />
        </mxCell>
        <mxCell id="7-1S0OzysIVDJsEuhTjP-28" value="" style="ellipse;whiteSpace=wrap;html=1;aspect=fixed;fillColor=#000000;" vertex="1" parent="7-1S0OzysIVDJsEuhTjP-27">
          <mxGeometry width="40" height="40" as="geometry" />
        </mxCell>
        <mxCell id="7-1S0OzysIVDJsEuhTjP-29" value="" style="ellipse;whiteSpace=wrap;html=1;aspect=fixed;fillColor=#FFFFFF;fillStyle=hatch;rotation=-90;" vertex="1" parent="7-1S0OzysIVDJsEuhTjP-27">
          <mxGeometry width="40" height="40" as="geometry" />
        </mxCell>
        <mxCell id="7-1S0OzysIVDJsEuhTjP-37" value="" style="ellipse;whiteSpace=wrap;html=1;aspect=fixed;" vertex="1" parent="1">
          <mxGeometry x="270" y="420" width="40" height="40" as="geometry" />
        </mxCell>
        <mxCell id="7-1S0OzysIVDJsEuhTjP-39" value="CheckStage (in?sequence_element, out!sequence_element, t:basesim)" style="text;html=1;align=center;verticalAlign=middle;whiteSpace=wrap;rounded=0;" vertex="1" parent="1">
          <mxGeometry x="240" y="260" width="210" height="30" as="geometry" />
        </mxCell>
        <mxCell id="7-1S0OzysIVDJsEuhTjP-40" value="!Begin (out!sequence_element)" style="text;html=1;align=center;verticalAlign=middle;whiteSpace=wrap;rounded=0;" vertex="1" parent="1">
          <mxGeometry x="10" y="260" width="210" height="30" as="geometry" />
        </mxCell>
        <mxCell id="7-1S0OzysIVDJsEuhTjP-41" value="End(in?sequence_element)" style="text;whiteSpace=wrap;align=center;" vertex="1" parent="1">
          <mxGeometry x="490" y="260" width="180" height="40" as="geometry" />
        </mxCell>
        <mxCell id="7-1S0OzysIVDJsEuhTjP-43" value="in" style="text;html=1;align=center;verticalAlign=middle;whiteSpace=wrap;rounded=0;" vertex="1" parent="1">
          <mxGeometry x="240" y="390" width="60" height="30" as="geometry" />
        </mxCell>
        <mxCell id="7-1S0OzysIVDJsEuhTjP-44" value="out" style="text;html=1;align=center;verticalAlign=middle;whiteSpace=wrap;rounded=0;" vertex="1" parent="1">
          <mxGeometry x="400" y="390" width="60" height="30" as="geometry" />
        </mxCell>
        <mxCell id="7-1S0OzysIVDJsEuhTjP-45" value="in" style="text;html=1;align=center;verticalAlign=middle;whiteSpace=wrap;rounded=0;" vertex="1" parent="1">
          <mxGeometry x="470" y="390" width="60" height="30" as="geometry" />
        </mxCell>
        <mxCell id="7-1S0OzysIVDJsEuhTjP-46" value="" style="group" vertex="1" connectable="0" parent="1">
          <mxGeometry x="100" y="610" width="160" height="190" as="geometry" />
        </mxCell>
        <mxCell id="7-1S0OzysIVDJsEuhTjP-47" value="" style="rounded=1;whiteSpace=wrap;html=1;fillStyle=auto;" vertex="1" parent="7-1S0OzysIVDJsEuhTjP-46">
          <mxGeometry width="110" height="190" as="geometry" />
        </mxCell>
        <mxCell id="7-1S0OzysIVDJsEuhTjP-48" value="" style="rounded=1;whiteSpace=wrap;html=1;fillStyle=hatch;fillColor=#000000;" vertex="1" parent="7-1S0OzysIVDJsEuhTjP-46">
          <mxGeometry width="110" height="190" as="geometry" />
        </mxCell>
        <mxCell id="7-1S0OzysIVDJsEuhTjP-49" value="" style="ellipse;whiteSpace=wrap;html=1;aspect=fixed;" vertex="1" parent="7-1S0OzysIVDJsEuhTjP-46">
          <mxGeometry x="10" y="30" width="40" height="40" as="geometry" />
        </mxCell>
        <mxCell id="7-1S0OzysIVDJsEuhTjP-50" value="" style="group" vertex="1" connectable="0" parent="7-1S0OzysIVDJsEuhTjP-46">
          <mxGeometry x="90" y="120" width="40" height="40" as="geometry" />
        </mxCell>
        <mxCell id="7-1S0OzysIVDJsEuhTjP-51" value="" style="ellipse;whiteSpace=wrap;html=1;aspect=fixed;fillColor=#000000;" vertex="1" parent="7-1S0OzysIVDJsEuhTjP-50">
          <mxGeometry width="40" height="40" as="geometry" />
        </mxCell>
        <mxCell id="7-1S0OzysIVDJsEuhTjP-52" value="" style="ellipse;whiteSpace=wrap;html=1;aspect=fixed;fillColor=#FFFFFF;fillStyle=hatch;rotation=-90;" vertex="1" parent="7-1S0OzysIVDJsEuhTjP-50">
          <mxGeometry width="40" height="40" as="geometry" />
        </mxCell>
        <mxCell id="7-1S0OzysIVDJsEuhTjP-54" value="" style="group" vertex="1" connectable="0" parent="1">
          <mxGeometry x="320" y="610" width="110" height="190" as="geometry" />
        </mxCell>
        <mxCell id="7-1S0OzysIVDJsEuhTjP-55" value="" style="rounded=1;whiteSpace=wrap;html=1;fillStyle=auto;" vertex="1" parent="7-1S0OzysIVDJsEuhTjP-54">
          <mxGeometry width="110" height="190" as="geometry" />
        </mxCell>
        <mxCell id="7-1S0OzysIVDJsEuhTjP-56" value="" style="rounded=1;whiteSpace=wrap;html=1;fillStyle=hatch;fillColor=#000000;" vertex="1" parent="7-1S0OzysIVDJsEuhTjP-54">
          <mxGeometry width="110" height="190" as="geometry" />
        </mxCell>
        <mxCell id="7-1S0OzysIVDJsEuhTjP-57" value="" style="group" vertex="1" connectable="0" parent="1">
          <mxGeometry x="950" y="610" width="130" height="210" as="geometry" />
        </mxCell>
        <mxCell id="7-1S0OzysIVDJsEuhTjP-58" value="" style="rounded=1;whiteSpace=wrap;html=1;fillStyle=auto;" vertex="1" parent="7-1S0OzysIVDJsEuhTjP-57">
          <mxGeometry width="110" height="190" as="geometry" />
        </mxCell>
        <mxCell id="7-1S0OzysIVDJsEuhTjP-59" value="" style="rounded=1;whiteSpace=wrap;html=1;fillStyle=hatch;fillColor=#000000;" vertex="1" parent="7-1S0OzysIVDJsEuhTjP-57">
          <mxGeometry width="110" height="190" as="geometry" />
        </mxCell>
        <mxCell id="7-1S0OzysIVDJsEuhTjP-60" value="" style="ellipse;whiteSpace=wrap;html=1;aspect=fixed;" vertex="1" parent="7-1S0OzysIVDJsEuhTjP-57">
          <mxGeometry x="-20" y="120" width="40" height="40" as="geometry" />
        </mxCell>
        <mxCell id="7-1S0OzysIVDJsEuhTjP-104" value="" style="group" vertex="1" connectable="0" parent="7-1S0OzysIVDJsEuhTjP-57">
          <mxGeometry x="35" y="170" width="40" height="40" as="geometry" />
        </mxCell>
        <mxCell id="7-1S0OzysIVDJsEuhTjP-105" value="" style="ellipse;whiteSpace=wrap;html=1;aspect=fixed;fillColor=#000000;" vertex="1" parent="7-1S0OzysIVDJsEuhTjP-104">
          <mxGeometry width="40" height="40" as="geometry" />
        </mxCell>
        <mxCell id="7-1S0OzysIVDJsEuhTjP-106" value="" style="ellipse;whiteSpace=wrap;html=1;aspect=fixed;fillColor=#FFFFFF;fillStyle=hatch;rotation=-90;" vertex="1" parent="7-1S0OzysIVDJsEuhTjP-104">
          <mxGeometry width="40" height="40" as="geometry" />
        </mxCell>
        <mxCell id="7-1S0OzysIVDJsEuhTjP-61" value="" style="group" vertex="1" connectable="0" parent="1">
          <mxGeometry x="410" y="730" width="40" height="40" as="geometry" />
        </mxCell>
        <mxCell id="7-1S0OzysIVDJsEuhTjP-62" value="" style="ellipse;whiteSpace=wrap;html=1;aspect=fixed;fillColor=#000000;" vertex="1" parent="7-1S0OzysIVDJsEuhTjP-61">
          <mxGeometry width="40" height="40" as="geometry" />
        </mxCell>
        <mxCell id="7-1S0OzysIVDJsEuhTjP-63" value="" style="ellipse;whiteSpace=wrap;html=1;aspect=fixed;fillColor=#FFFFFF;fillStyle=hatch;rotation=-90;" vertex="1" parent="7-1S0OzysIVDJsEuhTjP-61">
          <mxGeometry width="40" height="40" as="geometry" />
        </mxCell>
        <mxCell id="7-1S0OzysIVDJsEuhTjP-64" value="" style="ellipse;whiteSpace=wrap;html=1;aspect=fixed;" vertex="1" parent="1">
          <mxGeometry x="300" y="730" width="40" height="40" as="geometry" />
        </mxCell>
        <mxCell id="7-1S0OzysIVDJsEuhTjP-71" value="" style="group" vertex="1" connectable="0" parent="1">
          <mxGeometry x="540" y="610" width="110" height="190" as="geometry" />
        </mxCell>
        <mxCell id="7-1S0OzysIVDJsEuhTjP-72" value="" style="rounded=1;whiteSpace=wrap;html=1;fillStyle=auto;" vertex="1" parent="7-1S0OzysIVDJsEuhTjP-71">
          <mxGeometry width="110" height="190" as="geometry" />
        </mxCell>
        <mxCell id="7-1S0OzysIVDJsEuhTjP-73" value="" style="rounded=1;whiteSpace=wrap;html=1;fillStyle=hatch;fillColor=#000000;" vertex="1" parent="7-1S0OzysIVDJsEuhTjP-71">
          <mxGeometry width="110" height="190" as="geometry" />
        </mxCell>
        <mxCell id="7-1S0OzysIVDJsEuhTjP-74" value="" style="group" vertex="1" connectable="0" parent="1">
          <mxGeometry x="630" y="730" width="40" height="40" as="geometry" />
        </mxCell>
        <mxCell id="7-1S0OzysIVDJsEuhTjP-75" value="" style="ellipse;whiteSpace=wrap;html=1;aspect=fixed;fillColor=#000000;" vertex="1" parent="7-1S0OzysIVDJsEuhTjP-74">
          <mxGeometry width="40" height="40" as="geometry" />
        </mxCell>
        <mxCell id="7-1S0OzysIVDJsEuhTjP-76" value="" style="ellipse;whiteSpace=wrap;html=1;aspect=fixed;fillColor=#FFFFFF;fillStyle=hatch;rotation=-90;" vertex="1" parent="7-1S0OzysIVDJsEuhTjP-74">
          <mxGeometry width="40" height="40" as="geometry" />
        </mxCell>
        <mxCell id="7-1S0OzysIVDJsEuhTjP-77" value="" style="ellipse;whiteSpace=wrap;html=1;aspect=fixed;" vertex="1" parent="1">
          <mxGeometry x="520" y="730" width="40" height="40" as="geometry" />
        </mxCell>
        <mxCell id="7-1S0OzysIVDJsEuhTjP-85" value="" style="group" vertex="1" connectable="0" parent="1">
          <mxGeometry x="750" y="610" width="110" height="190" as="geometry" />
        </mxCell>
        <mxCell id="7-1S0OzysIVDJsEuhTjP-86" value="" style="rounded=1;whiteSpace=wrap;html=1;fillStyle=auto;" vertex="1" parent="7-1S0OzysIVDJsEuhTjP-85">
          <mxGeometry width="110" height="190" as="geometry" />
        </mxCell>
        <mxCell id="7-1S0OzysIVDJsEuhTjP-87" value="" style="rounded=1;whiteSpace=wrap;html=1;fillStyle=hatch;fillColor=#000000;" vertex="1" parent="7-1S0OzysIVDJsEuhTjP-85">
          <mxGeometry width="110" height="190" as="geometry" />
        </mxCell>
        <mxCell id="7-1S0OzysIVDJsEuhTjP-88" value="" style="group" vertex="1" connectable="0" parent="1">
          <mxGeometry x="840" y="730" width="40" height="40" as="geometry" />
        </mxCell>
        <mxCell id="7-1S0OzysIVDJsEuhTjP-89" value="" style="ellipse;whiteSpace=wrap;html=1;aspect=fixed;fillColor=#000000;" vertex="1" parent="7-1S0OzysIVDJsEuhTjP-88">
          <mxGeometry width="40" height="40" as="geometry" />
        </mxCell>
        <mxCell id="7-1S0OzysIVDJsEuhTjP-90" value="" style="ellipse;whiteSpace=wrap;html=1;aspect=fixed;fillColor=#FFFFFF;fillStyle=hatch;rotation=-90;" vertex="1" parent="7-1S0OzysIVDJsEuhTjP-88">
          <mxGeometry width="40" height="40" as="geometry" />
        </mxCell>
        <mxCell id="7-1S0OzysIVDJsEuhTjP-91" value="" style="ellipse;whiteSpace=wrap;html=1;aspect=fixed;" vertex="1" parent="1">
          <mxGeometry x="730" y="730" width="40" height="40" as="geometry" />
        </mxCell>
        <mxCell id="7-1S0OzysIVDJsEuhTjP-92" style="edgeStyle=orthogonalEdgeStyle;rounded=0;orthogonalLoop=1;jettySize=auto;html=1;exitX=0.5;exitY=1;exitDx=0;exitDy=0;entryX=0;entryY=0.5;entryDx=0;entryDy=0;endArrow=none;endFill=0;strokeWidth=2;" edge="1" parent="1" source="7-1S0OzysIVDJsEuhTjP-52" target="7-1S0OzysIVDJsEuhTjP-64">
          <mxGeometry relative="1" as="geometry" />
        </mxCell>
        <mxCell id="7-1S0OzysIVDJsEuhTjP-93" style="edgeStyle=orthogonalEdgeStyle;rounded=0;orthogonalLoop=1;jettySize=auto;html=1;exitX=0.5;exitY=1;exitDx=0;exitDy=0;entryX=0;entryY=0.5;entryDx=0;entryDy=0;strokeColor=default;strokeWidth=2;align=center;verticalAlign=middle;fontFamily=Helvetica;fontSize=11;fontColor=default;labelBackgroundColor=default;endArrow=none;endFill=0;" edge="1" parent="1" source="7-1S0OzysIVDJsEuhTjP-63" target="7-1S0OzysIVDJsEuhTjP-77">
          <mxGeometry relative="1" as="geometry" />
        </mxCell>
        <mxCell id="7-1S0OzysIVDJsEuhTjP-95" style="edgeStyle=orthogonalEdgeStyle;rounded=0;orthogonalLoop=1;jettySize=auto;html=1;exitX=0.5;exitY=1;exitDx=0;exitDy=0;entryX=0;entryY=0.5;entryDx=0;entryDy=0;strokeColor=default;strokeWidth=2;align=center;verticalAlign=middle;fontFamily=Helvetica;fontSize=11;fontColor=default;labelBackgroundColor=default;endArrow=none;endFill=0;" edge="1" parent="1" source="7-1S0OzysIVDJsEuhTjP-90" target="7-1S0OzysIVDJsEuhTjP-60">
          <mxGeometry relative="1" as="geometry" />
        </mxCell>
        <mxCell id="7-1S0OzysIVDJsEuhTjP-96" style="edgeStyle=orthogonalEdgeStyle;rounded=0;orthogonalLoop=1;jettySize=auto;html=1;exitX=0.5;exitY=1;exitDx=0;exitDy=0;strokeColor=default;strokeWidth=2;align=center;verticalAlign=middle;fontFamily=Helvetica;fontSize=11;fontColor=default;labelBackgroundColor=default;endArrow=none;endFill=0;" edge="1" parent="1">
          <mxGeometry relative="1" as="geometry">
            <mxPoint x="670" y="749.83" as="sourcePoint" />
            <mxPoint x="690" y="750" as="targetPoint" />
          </mxGeometry>
        </mxCell>
        <mxCell id="7-1S0OzysIVDJsEuhTjP-97" style="edgeStyle=orthogonalEdgeStyle;rounded=0;orthogonalLoop=1;jettySize=auto;html=1;exitX=0.5;exitY=1;exitDx=0;exitDy=0;strokeColor=default;strokeWidth=2;align=center;verticalAlign=middle;fontFamily=Helvetica;fontSize=11;fontColor=default;labelBackgroundColor=default;endArrow=none;endFill=0;" edge="1" parent="1">
          <mxGeometry relative="1" as="geometry">
            <mxPoint x="710" y="749.86" as="sourcePoint" />
            <mxPoint x="730" y="750.03" as="targetPoint" />
          </mxGeometry>
        </mxCell>
        <mxCell id="7-1S0OzysIVDJsEuhTjP-98" style="edgeStyle=orthogonalEdgeStyle;rounded=0;orthogonalLoop=1;jettySize=auto;html=1;exitX=0.5;exitY=1;exitDx=0;exitDy=0;strokeColor=default;strokeWidth=2;align=center;verticalAlign=middle;fontFamily=Helvetica;fontSize=11;fontColor=default;labelBackgroundColor=default;endArrow=none;endFill=0;" edge="1" parent="1">
          <mxGeometry relative="1" as="geometry">
            <mxPoint x="697" y="749.86" as="sourcePoint" />
            <mxPoint x="703" y="750.03" as="targetPoint" />
          </mxGeometry>
        </mxCell>
        <mxCell id="7-1S0OzysIVDJsEuhTjP-99" value="Begin" style="text;html=1;align=center;verticalAlign=middle;whiteSpace=wrap;rounded=0;" vertex="1" parent="1">
          <mxGeometry x="130" y="570" width="50" height="30" as="geometry" />
        </mxCell>
        <mxCell id="7-1S0OzysIVDJsEuhTjP-100" value="End" style="text;html=1;align=center;verticalAlign=middle;whiteSpace=wrap;rounded=0;" vertex="1" parent="1">
          <mxGeometry x="980" y="570" width="50" height="30" as="geometry" />
        </mxCell>
        <mxCell id="7-1S0OzysIVDJsEuhTjP-101" value="CheckStage &lt;sub&gt;1&lt;/sub&gt;" style="text;whiteSpace=wrap;align=center;html=1;" vertex="1" parent="1">
          <mxGeometry x="330" y="570" width="100" height="30" as="geometry" />
        </mxCell>
        <mxCell id="7-1S0OzysIVDJsEuhTjP-102" value="CheckStage &lt;span style=&quot;font-size: 10px;&quot;&gt;2&lt;/span&gt;" style="text;whiteSpace=wrap;align=center;html=1;" vertex="1" parent="1">
          <mxGeometry x="545" y="570" width="100" height="30" as="geometry" />
        </mxCell>
        <mxCell id="7-1S0OzysIVDJsEuhTjP-103" value="CheckStage &lt;span style=&quot;font-size: 10px;&quot;&gt;3&lt;/span&gt;" style="text;whiteSpace=wrap;align=center;html=1;" vertex="1" parent="1">
          <mxGeometry x="755" y="570" width="100" height="30" as="geometry" />
        </mxCell>
      </root>
    </mxGraphModel>
  </diagram>
</mxfile>
